<svg xmlns="http://www.w3.org/2000/svg" viewBox="0 0 100.25 125.3125" x="0px" fill="white" y="0px"><title>Parking</title><g data-name="Layer 14"><path d="M95.13,65.16c0-1.51-.46-3.33-2.5-3.33a6.52,6.52,0,0,0-3.87,1.59l-4-11.24a5.31,5.31,0,0,0-5-3.55H51a5.34,5.34,0,0,0-5,3.55L42,63.51a6.54,6.54,0,0,0-4-1.68c-2,0-2.49,1.82-2.49,3.33,0,1.35,1.33,2.48,3.08,2.69a2.91,2.91,0,0,0-.6,1.32l-.49,2.88a30.34,30.34,0,0,0-.3,8l.94,5.37v7.67a2.47,2.47,0,0,0,2.47,2.47h6.56a2.47,2.47,0,0,0,2.47-2.47V90.64H81v2.41a2.47,2.47,0,0,0,2.47,2.47h6.56a2.47,2.47,0,0,0,2.47-2.47v-7.2l1.1-6.43a30,30,0,0,0-.31-8L93,69.17a2.94,2.94,0,0,0-.63-1.36C93.93,67.51,95.12,66.44,95.13,65.16ZM49.31,81.3a4.4,4.4,0,0,1-8.18,0,4.19,4.19,0,0,1-.32-1.63,4.41,4.41,0,0,1,8.82,0A4.19,4.19,0,0,1,49.31,81.3Zm28.84-4.11-1.35,6a3.15,3.15,0,0,1-3.19,2.22h-16a3.15,3.15,0,0,1-3.19-2.22l-1.35-6C52.68,75.52,54.21,74,56.24,74H75C77,74,78.52,75.52,78.15,77.19ZM44.69,66.74l3.94-13a2.74,2.74,0,0,1,2.66-2.08H79.91a2.75,2.75,0,0,1,2.66,2.08l3.93,13A325.83,325.83,0,0,0,44.69,66.74ZM89.54,81.3a4.4,4.4,0,0,1-8.18,0A4.19,4.19,0,0,1,81,79.67a4.41,4.41,0,0,1,8.82,0A4.19,4.19,0,0,1,89.54,81.3Z"/><path d="M30.27,21.15V23c0,3.39-3.19,6.14-7.12,6.14H18.78V15h4.37C27.08,15,30.27,17.76,30.27,21.15Z"/><path d="M38.11,5.42H10.94a6.42,6.42,0,0,0-6.42,6.41V45.27a6.42,6.42,0,0,0,6.42,6.42H38.11a6.41,6.41,0,0,0,6.41-6.42V11.83A6.41,6.41,0,0,0,38.11,5.42ZM35.5,22.78c0,6-5.64,10.86-12.59,10.86H18.78v13H13.55V10.5h9.36c7,0,12.59,4.86,12.59,10.86Z"/></g></svg>