<svg xmlns="http://www.w3.org/2000/svg" xmlns:xlink="http://www.w3.org/1999/xlink" fill="white" version="1.1" x="0px" y="0px" viewBox="0 0 100 125" style="enable-background:new 0 0 100 100;" xml:space="preserve"><path d="M88.89,78.98L76.16,66.26c-0.39-0.39-1.02-0.39-1.41,0l-3.54,3.54l-5.86-5.86C65.88,59.26,66,54.49,66,49.99  c0-10.17-0.61-21.74-5.12-30.43c0,0,0,0,0-0.01c-0.01-0.01-0.01-0.03-0.02-0.04c-4.8-9.2-9.89-14.95-10.11-15.19  c-0.38-0.43-1.11-0.43-1.49,0c-0.21,0.24-5.31,5.99-10.11,15.19c0,0.01-0.01,0.02-0.01,0.03c-2.17,4.16-3.43,8.99-4.16,14  l-4.77-4.77l3.54-3.54c0.39-0.39,0.39-1.02,0-1.41L21.01,11.1c-0.39-0.39-1.02-0.39-1.41,0l-8.49,8.49c-0.39,0.39-0.39,1.02,0,1.41  l12.73,12.73c0.2,0.2,0.45,0.29,0.71,0.29s0.51-0.1,0.71-0.29l3.54-3.54l5.86,5.86C34.12,40.72,34,45.49,34,49.99  c0,10.17,0.61,21.74,5.12,30.43c0,0,0,0,0,0.01c0.01,0.01,0.01,0.03,0.02,0.04c4.8,9.2,9.89,14.95,10.11,15.19  c0.19,0.21,0.46,0.33,0.75,0.33s0.56-0.12,0.75-0.33c0.21-0.24,5.31-5.99,10.11-15.19c0-0.01,0.01-0.02,0.01-0.03  c2.17-4.16,3.43-8.99,4.16-14l4.77,4.77l-3.54,3.54c-0.39,0.39-0.39,1.02,0,1.41l12.73,12.73c0.2,0.2,0.45,0.29,0.71,0.29  s0.51-0.1,0.71-0.29l8.49-8.49C89.28,80.01,89.28,79.37,88.89,78.98z M59.36,78.99H40.64c-4.08-8.25-4.64-19.27-4.64-29  c0-3.92,0.1-8.04,0.47-12.12l26.79,26.79C62.62,69.8,61.45,74.76,59.36,78.99z M63.53,62.11L36.74,35.32  c0.64-5.14,1.8-10.1,3.9-14.33h18.72c4.08,8.25,4.64,19.27,4.64,29C64,53.91,63.9,58.04,63.53,62.11z"/></svg>