<svg xmlns="http://www.w3.org/2000/svg" xmlns:xlink="http://www.w3.org/1999/xlink" xml:space="preserve" style="shape-rendering:geometricPrecision;text-rendering:geometricPrecision;image-rendering:optimizeQuality;" viewBox="0 0 5.6524 5.475250000000001" x="0px" y="0px" fill-rule="evenodd" clip-rule="evenodd"><defs><style type="text/css">
   
    .fil0 {fill:white}
    .fil1 {fill:white;fill-rule:nonzero}
   
  </style></defs><g><path class="fil0" d="M2.8262 3.4329c0.2616,0 0.4736,0.2121 0.4736,0.4737 0,0.2616 -0.212,0.4736 -0.4736,0.4736 -0.2616,0 -0.4736,-0.212 -0.4736,-0.4736 0,-0.2616 0.212,-0.4737 0.4736,-0.4737z"/><path class="fil1" d="M2.8262 2.2896c0.479,0 0.9098,0.2095 1.2063,0.5416l-0.3884 0.3884c-0.1954,-0.2328 -0.489,-0.3804 -0.8179,-0.3804 -0.3289,0 -0.6225,0.1476 -0.8179,0.3804l-0.3884 -0.3884c0.2965,-0.3321 0.7273,-0.5416 1.2063,-0.5416z"/><path class="fil1" d="M2.8262 1.0818c0.8131,0 1.546,0.3439 2.0616,0.8941l-0.3888 0.3888c-0.4159,-0.4507 -1.0114,-0.7333 -1.6728,-0.7333 -0.6614,0 -1.2569,0.2826 -1.6728,0.7333l-0.3888 -0.3888c0.5156,-0.5502 1.2485,-0.8941 2.0616,-0.8941z"/><path class="fil1" d="M2.8262 0c1.1111,0 2.1146,0.4652 2.8262,1.2112l-0.3875 0.3878c-0.6117,-0.6463 -1.4778,-1.0494 -2.4387,-1.0494 -0.9609,0 -1.827,0.4031 -2.4387,1.0494l-0.3875 -0.3878c0.7116,-0.746 1.7151,-1.2112 2.8262,-1.2112z"/></g></svg>