<svg xmlns="http://www.w3.org/2000/svg" xmlns:xlink="http://www.w3.org/1999/xlink" fill="white" version="1.1" x="0px" y="0px" viewBox="0 0 100 125" enable-background="new 0 0 100 100" xml:space="preserve"><g><rect x="57.297" y="36.486" width="6.668" height="6.668"/><rect x="57.297" y="44.828" width="6.668" height="6.668"/><rect x="57.297" y="53.169" width="6.668" height="6.668"/><rect x="65.639" y="53.169" width="6.668" height="6.668"/><rect x="65.639" y="36.486" width="6.668" height="6.668"/><rect x="65.639" y="44.828" width="6.668" height="6.668"/><rect x="73.98" y="36.486" width="6.668" height="6.668"/><rect x="73.98" y="44.828" width="6.668" height="6.668"/><rect x="73.98" y="53.169" width="6.668" height="6.668"/><path d="M79.91,24.99c3.66,0,6.62,2.97,6.62,6.63v33.09c0,3.65-2.96,6.62-6.62,6.62H20.09c-3.66,0-6.62-2.97-6.62-6.62V31.62   c0-3.66,2.96-6.63,6.62-6.63H79.91z M79.91,69.33c2.55,0,4.62-2.07,4.62-4.62V31.62c0-2.55-2.07-4.63-4.62-4.63H20.09   c-2.55,0-4.62,2.08-4.62,4.63v33.09c0,2.55,2.07,4.62,4.62,4.62H79.91z"/><path d="M5,28.56c0-6.64,5.4-12.03,12.03-12.03h65.94C89.6,16.53,95,21.92,95,28.56v39.21c0,6.63-5.4,12.03-12.03,12.03h-2.75v0.93   c0,1.51-1.23,2.74-2.74,2.74h-1.94c-1.51,0-2.74-1.23-2.74-2.74V79.8H27.2v0.93c0,1.51-1.23,2.74-2.74,2.74h-1.94   c-1.51,0-2.74-1.23-2.74-2.74V79.8h-2.75C10.4,79.8,5,74.4,5,67.77V28.56z M17.03,77.12h65.94c5.16,0,9.36-4.19,9.36-9.35V28.56   c0-5.16-4.2-9.36-9.36-9.36H17.03c-5.16,0-9.36,4.2-9.36,9.36v39.21C7.67,72.93,11.87,77.12,17.03,77.12z"/><path d="M40.228,31.457h-8.525c-6.6,0-12,5.4-12,12v9.41c0,6.6,5.4,12,12,12h8.525c6.6,0,12-5.4,12-12v-9.41   C52.228,36.857,46.828,31.457,40.228,31.457z M47.5,48.16c0,0.21-0.01,0.42-0.02,0.64l1.43,0.46c0.52,0.18,0.81,0.74,0.64,1.26   l-1.21,3.72c-0.17,0.52-0.73,0.81-1.26,0.64l-1.42-0.46c-0.23,0.35-0.48,0.7-0.75,1.03l0.88,1.21c0.15,0.22,0.22,0.48,0.18,0.75   c-0.04,0.26-0.19,0.49-0.4,0.65l-3.16,2.29c-0.45,0.33-1.07,0.23-1.4-0.22l-0.88-1.21c-0.39,0.15-0.8,0.29-1.21,0.39v1.5   c0,0.55-0.45,1-1,1h-3.91c-0.55,0-1-0.45-1-1v-1.5c-0.41-0.1-0.82-0.24-1.21-0.39l-0.88,1.21c-0.33,0.45-0.95,0.55-1.4,0.22   l-3.16-2.29c-0.44-0.33-0.54-0.95-0.22-1.4l0.88-1.21c-0.27-0.33-0.52-0.68-0.75-1.03l-1.42,0.46c-0.53,0.17-1.09-0.12-1.26-0.64   l-1.21-3.72c-0.17-0.52,0.12-1.08,0.64-1.26l1.43-0.46c-0.01-0.22-0.02-0.43-0.02-0.64c0-0.21,0.01-0.42,0.02-0.64l-1.43-0.46   c-0.52-0.17-0.81-0.74-0.64-1.26l1.21-3.71c0.17-0.53,0.73-0.81,1.26-0.64l1.42,0.46c0.23-0.36,0.48-0.7,0.75-1.03l-0.88-1.22   c-0.32-0.44-0.22-1.07,0.22-1.39l3.16-2.3c0.45-0.32,1.07-0.22,1.4,0.22l0.88,1.21c0.39-0.15,0.8-0.28,1.21-0.39v-1.5   c0-0.55,0.45-1,1-1h3.91c0.55,0,1,0.45,1,1v1.5c0.41,0.11,0.82,0.24,1.21,0.39l0.88-1.21c0.33-0.44,0.95-0.54,1.4-0.22l3.16,2.3   c0.21,0.15,0.36,0.39,0.4,0.65c0.04,0.26-0.03,0.53-0.18,0.74l-0.88,1.22c0.27,0.33,0.52,0.67,0.75,1.03l1.42-0.46   c0.53-0.17,1.09,0.11,1.26,0.64l1.21,3.71c0.17,0.52-0.12,1.09-0.64,1.26l-1.43,0.46C47.49,47.74,47.5,47.95,47.5,48.16z"/><path d="M46.1,45.87l1.24-0.4l-0.59-1.81l-1.23,0.4c-0.46,0.15-0.96-0.05-1.19-0.47c-0.38-0.71-0.87-1.37-1.43-1.97   c-0.33-0.35-0.36-0.88-0.08-1.27l0.76-1.05l-1.54-1.12l-0.76,1.05c-0.28,0.39-0.8,0.52-1.24,0.31c-0.73-0.34-1.5-0.6-2.31-0.75   c-0.47-0.09-0.81-0.5-0.81-0.98v-1.3h-1.91v1.3c0,0.48-0.34,0.89-0.81,0.98c-0.81,0.15-1.58,0.41-2.31,0.75   c-0.44,0.21-0.96,0.08-1.24-0.31l-0.76-1.05l-1.54,1.12l0.76,1.05c0.28,0.39,0.25,0.92-0.08,1.27c-0.56,0.6-1.04,1.26-1.43,1.97   c-0.23,0.42-0.73,0.62-1.19,0.47l-1.23-0.4l-0.59,1.81l1.24,0.4c0.45,0.15,0.74,0.6,0.68,1.08c-0.05,0.41-0.08,0.82-0.08,1.21   s0.03,0.8,0.08,1.22c0.06,0.48-0.23,0.93-0.68,1.08l-1.24,0.4l0.59,1.81l1.23-0.4c0.46-0.15,0.96,0.05,1.19,0.47   c0.39,0.71,0.87,1.37,1.43,1.96c0.33,0.35,0.36,0.89,0.08,1.28l-0.76,1.05l1.54,1.12l0.76-1.05c0.28-0.39,0.8-0.52,1.24-0.32   c0.73,0.35,1.5,0.6,2.31,0.75c0.47,0.09,0.81,0.5,0.81,0.98v1.3h1.91v-1.3c0-0.48,0.34-0.89,0.81-0.98   c0.81-0.15,1.58-0.4,2.31-0.75c0.44-0.2,0.96-0.07,1.24,0.32l0.76,1.05l1.54-1.12l-0.76-1.05c-0.28-0.39-0.25-0.93,0.08-1.28   c0.56-0.59,1.05-1.26,1.43-1.96c0.23-0.42,0.73-0.62,1.19-0.47l1.23,0.4l0.59-1.81l-1.24-0.4c-0.45-0.15-0.74-0.61-0.68-1.08   c0.05-0.42,0.08-0.83,0.08-1.22s-0.03-0.8-0.08-1.21C45.36,46.47,45.65,46.02,46.1,45.87z M35.97,55.8c-4.21,0-7.64-3.43-7.64-7.64   c0-4.21,3.43-7.63,7.64-7.63c4.2,0,7.63,3.42,7.63,7.63C43.6,52.37,40.17,55.8,35.97,55.8z"/></g></svg>